<?xml version="1.0" encoding="UTF-8"?>
<svg version="1.1" xmlns="http://www.w3.org/2000/svg" viewBox="0 0 86.338775185587 105.0384986062279" width="86.338775185587" height="105.0384986062279">
  <g stroke-linecap="round">
    <g stroke-opacity="0.5" fill-opacity="0.5" transform="translate(75.03518886097527 94.98533186807538) rotate(0 -32.399739937008405 -42.398896653425254)">
      <path d="M-0.59 0.05 C-8.88 -6.6, -39.6 -25.42, -50.24 -39.59 C-60.89 -53.76, -62.05 -77.64, -64.45 -84.99 M1.3 -0.96 C-7.04 -7.44, -39.71 -24.26, -50.76 -38.06 C-61.82 -51.86, -62.77 -75.83, -65.04 -83.77" stroke="currentColor" stroke-width="2" fill="none"/>
      <path d="M-53.04 -63.4 C-56.13 -67.41, -59.38 -73.49, -65.04 -83.77 M-53.04 -63.4 C-56.28 -68.75, -59.17 -75.64, -65.04 -83.77" stroke="currentColor" stroke-width="2" fill="none"/>
      <path d="M-68.94 -60.46 C-67.9 -65.16, -67 -72, -65.04 -83.77 M-68.94 -60.46 C-67.66 -66.79, -66.03 -74.51, -65.04 -83.77" stroke="currentColor" stroke-width="2" fill="none"/>
    </g>
  </g>
</svg>
